Coordinates
version=1
nRows=5
nColumns=40
inDegrees=yes

Units are S.I. units (second, meters, Newtons, ...)
If the header above contains a line with 'inDegrees', this indicates whether rotational values are in degrees (yes) or radians (no).

endheader
time	pelvis_tilt	pelvis_list	pelvis_rotation	pelvis_tx	pelvis_ty	pelvis_tz	hip_flexion_r	hip_adduction_r	hip_rotation_r	knee_angle_r	knee_angle_r_beta	ankle_angle_r	subtalar_angle_r	mtp_angle_r	hip_flexion_l	hip_adduction_l	hip_rotation_l	knee_angle_l	knee_angle_l_beta	ankle_angle_l	subtalar_angle_l	mtp_angle_l	lumbar_extension	lumbar_bending	lumbar_rotation	arm_flex_r	arm_add_r	arm_rot_r	elbow_flex_r	pro_sup_r	wrist_flex_r	wrist_dev_r	arm_flex_l	arm_add_l	arm_rot_l	elbow_flex_l	pro_sup_l	wrist_flex_l	wrist_dev_l
      3.00000000	    -30.18209816	      1.39170945	      4.21323222	     -0.39204096	      0.58892862	     -0.89840856	     96.02899607	    -12.39175127	      5.82161000	    111.92624524	      1.95348150	     45.16298309	      0.00000000	      0.00000000	     96.71164769	    -15.19665535	     -0.40787531	    110.54355321	      1.92934897	     41.98762872	      0.00000000	      0.00000000	    -24.53370787	     -3.01769406	     -1.90229267	    -11.74015025	    -44.86609773	     48.74612646	     85.60122789	     87.86472068	      0.00000000	      0.00000000	    -18.36803218	    -44.66980438	     42.78147632	     90.11564672	     87.84967308	      0.00000000	      0.00000000
      3.00500000	    -30.21786263	      1.24040617	      4.22364258	     -0.39183145	      0.58884549	     -0.89835485	     95.99976320	    -12.36302905	      5.67596414	    111.92774934	      1.95350775	     45.21313316	      0.00000000	      0.00000000	     96.81129762	    -15.18569496	     -0.23116102	    110.57018756	      1.92981383	     42.01072828	      0.00000000	      0.00000000	    -24.51077005	     -2.87187901	     -1.63881092	    -12.20244408	    -44.82683582	     48.20611987	     85.67047459	     87.88604762	      0.00000000	      0.00000000	    -18.01295919	    -44.70592276	     43.14888915	     90.02992328	     87.86946800	      0.00000000	      0.00000000
      3.01000000	    -30.29195540	      1.15150842	      4.09989880	     -0.39174871	      0.58866200	     -0.89799315	     96.04843739	    -12.16505964	      5.59398827	    111.92229833	      1.95341261	     45.23801853	      0.00000000	      0.00000000	     96.95164532	    -15.34061235	     -0.10021655	    110.60419005	      1.93040728	     42.03910658	      0.00000000	      0.00000000	    -24.42530935	     -2.85145947	     -1.51204186	    -12.10825539	    -44.86930235	     48.38835845	     85.69096471	     87.87088889	      0.00000000	      0.00000000	    -18.11885949	    -44.69559720	     43.03985929	     90.05443446	     87.86994663	      0.00000000	      0.00000000
      3.01500000	    -30.36358090	      1.06921974	      3.90664419	     -0.39168241	      0.58848088	     -0.89741282	     96.09611030	    -11.87454822	      5.50807444	    111.90351457	      1.95308477	     45.25807879	      0.00000000	      0.00000000	     97.06540355	    -15.58295405	      0.03135739	    110.64439886	      1.93110906	     41.96556628	      0.00000000	      0.00000000	    -24.37756060	     -2.88685514	     -1.25143414	    -12.34465373	    -44.84719106	     48.07227217	     85.78137280	     87.86517500	      0.00000000	      0.00000000	    -18.20540300	    -44.72548646	     42.89431564	     90.16703181	     87.86547510	      0.00000000	      0.00000000
      3.02000000	    -30.46106524	      1.01593393	      3.81739224	     -0.39169687	      0.58836841	     -0.89717450	     96.18404576	    -11.72057668	      5.47682262	    111.88192825	      1.95270802	     45.24558543	      0.00000000	      0.00000000	     97.19397511	    -15.67363743	      0.11310344	    110.63442643	      1.93093501	     41.96655307	      0.00000000	      0.00000000	    -24.29398731	     -2.89271084	     -1.15822410	    -12.28242346	    -44.90737414	     48.19126971	     85.83238511	     87.87118660	      0.00000000	      0.00000000	    -18.23827796	    -44.75505372	     42.89551981	     90.22089832	     87.87134103	      0.00000000	      0.00000000
